<svg width="28" height="28" viewBox="0 0 28 28" fill="none" xmlns="http://www.w3.org/2000/svg">
<path d="M25 13.75H3.5M14.25 3V24.5M15.325 13.75C15.325 14.8904 15.778 15.9842 16.5844 16.7906C17.3908 17.597 18.4846 18.05 19.625 18.05M13.175 13.75C13.175 14.8904 12.722 15.9842 11.9156 16.7906C11.1092 17.597 10.0154 18.05 8.875 18.05" stroke="black" stroke-width="1.5" stroke-linecap="round"/>
<path d="M14.2498 11.6376C14.2498 10.8591 14.5101 10.1029 14.9893 9.48938C15.4684 8.87581 16.139 8.44004 16.8943 8.25135C18.6175 7.82135 20.1795 9.38225 19.7484 11.1065C19.5597 11.8618 19.1239 12.5324 18.5104 13.0115C17.8968 13.4907 17.1407 13.751 16.3621 13.751H14.2498M14.2498 11.6376V13.751M14.2498 11.6376C14.2497 10.8591 13.9894 10.1029 13.5103 9.48938C13.0311 8.87581 12.3606 8.44004 11.6053 8.25135C9.88205 7.82135 8.32007 9.38225 8.75115 11.1065C8.93984 11.8618 9.37561 12.5324 9.98918 13.0115C10.6027 13.4907 11.3589 13.751 12.1374 13.751H14.2498" stroke="black" stroke-width="1.5"/>
<path d="M25 13.75C25 18.8176 25 21.3513 23.4251 22.9251C21.8524 24.5 19.3176 24.5 14.25 24.5C9.18245 24.5 6.64868 24.5 5.0738 22.9251C3.5 21.3524 3.5 18.8176 3.5 13.75C3.5 8.68245 3.5 6.14868 5.0738 4.5738C6.64975 3 9.18245 3 14.25 3C19.3176 3 21.8513 3 23.4251 4.5738C24.4722 5.62085 24.8226 7.09253 24.9409 9.45" stroke="black" stroke-width="1.5" stroke-linecap="round"/>
</svg>
