<svg width="28" height="28" viewBox="0 0 28 28" fill="none" xmlns="http://www.w3.org/2000/svg">
<path fill-rule="evenodd" clip-rule="evenodd" d="M25.3636 10.6412C25.3841 10.516 25.3771 10.3879 25.3431 10.2657C25.3092 10.1435 25.249 10.0301 25.1669 9.93346C25.0848 9.83681 24.9826 9.75916 24.8675 9.70589C24.7524 9.65263 24.6271 9.62503 24.5003 9.625H3.50028C3.37345 9.62503 3.24814 9.65263 3.13304 9.70589C3.01793 9.75916 2.91578 9.83681 2.83366 9.93346C2.75154 10.0301 2.69141 10.1435 2.65745 10.2657C2.62348 10.3879 2.61649 10.516 2.63695 10.6412L4.41612 21.518C4.539 22.2691 4.92493 22.9521 5.50496 23.445C6.08498 23.9378 6.82133 24.2084 7.58245 24.2083H20.4181C21.1792 24.2084 21.9156 23.9378 22.4956 23.445C23.0756 22.9521 23.4616 22.2691 23.5845 21.518L25.3636 10.6412ZM23.4701 11.375L21.8566 21.2357C21.8007 21.5769 21.6254 21.8872 21.3619 22.1112C21.0984 22.3351 20.7639 22.4582 20.4181 22.4583H7.58245C7.23664 22.4582 6.90214 22.3351 6.63866 22.1112C6.37517 21.8872 6.19983 21.5769 6.14395 21.2357L4.53045 11.375H23.4701Z" fill="black"/>
<path fill-rule="evenodd" clip-rule="evenodd" d="M21.7501 10.0497L18.2501 4.21632C18.1295 4.01983 17.9362 3.87888 17.7122 3.82411C17.4883 3.76935 17.2517 3.8052 17.054 3.92387C16.8564 4.04254 16.7135 4.23444 16.6565 4.45786C16.5996 4.68127 16.6331 4.91815 16.7498 5.11699L20.2498 10.9503C20.3704 11.1468 20.5637 11.2878 20.7877 11.3425C21.0116 11.3973 21.2482 11.3614 21.4458 11.2428C21.6435 11.1241 21.7864 10.9322 21.8434 10.7088C21.9003 10.4854 21.8668 10.2485 21.7501 10.0497ZM7.75011 10.9503L11.2501 5.11699C11.3668 4.91815 11.4003 4.68127 11.3434 4.45786C11.2864 4.23444 11.1435 4.04254 10.9458 3.92387C10.7482 3.8052 10.5116 3.76935 10.2877 3.82411C10.0637 3.87888 9.8704 4.01983 9.74978 4.21632L6.24978 10.0497C6.13307 10.2485 6.09956 10.4854 6.15653 10.7088C6.21351 10.9322 6.35636 11.1241 6.55404 11.2428C6.75172 11.3614 6.98825 11.3973 7.21222 11.3425C7.43619 11.2878 7.62949 11.1468 7.75011 10.9503ZM13.1249 14.5833V19.25C13.1249 19.4821 13.2171 19.7046 13.3812 19.8687C13.5453 20.0328 13.7679 20.125 13.9999 20.125C14.232 20.125 14.4546 20.0328 14.6187 19.8687C14.7828 19.7046 14.8749 19.4821 14.8749 19.25V14.5833C14.8749 14.3513 14.7828 14.1287 14.6187 13.9646C14.4546 13.8005 14.232 13.7083 13.9999 13.7083C13.7679 13.7083 13.5453 13.8005 13.3812 13.9646C13.2171 14.1287 13.1249 14.3513 13.1249 14.5833ZM8.45828 14.5833V19.25C8.45828 19.4821 8.55046 19.7046 8.71456 19.8687C8.87865 20.0328 9.10121 20.125 9.33328 20.125C9.56534 20.125 9.7879 20.0328 9.95199 19.8687C10.1161 19.7046 10.2083 19.4821 10.2083 19.25V14.5833C10.2083 14.3513 10.1161 14.1287 9.95199 13.9646C9.7879 13.8005 9.56534 13.7083 9.33328 13.7083C9.10121 13.7083 8.87865 13.8005 8.71456 13.9646C8.55046 14.1287 8.45828 14.3513 8.45828 14.5833ZM17.7916 14.5833V19.25C17.7916 19.4821 17.8838 19.7046 18.0479 19.8687C18.212 20.0328 18.4345 20.125 18.6666 20.125C18.8987 20.125 19.1212 20.0328 19.2853 19.8687C19.4494 19.7046 19.5416 19.4821 19.5416 19.25V14.5833C19.5416 14.3513 19.4494 14.1287 19.2853 13.9646C19.1212 13.8005 18.8987 13.7083 18.6666 13.7083C18.4345 13.7083 18.212 13.8005 18.0479 13.9646C17.8838 14.1287 17.7916 14.3513 17.7916 14.5833Z" fill="black"/>
<path fill-rule="evenodd" clip-rule="evenodd" d="M25.6668 9.625H2.3335C2.10143 9.625 1.87887 9.71719 1.71478 9.88128C1.55068 10.0454 1.4585 10.2679 1.4585 10.5C1.4585 10.7321 1.55068 10.9546 1.71478 11.1187C1.87887 11.2828 2.10143 11.375 2.3335 11.375H25.6668C25.8989 11.375 26.1215 11.2828 26.2856 11.1187C26.4496 10.9546 26.5418 10.7321 26.5418 10.5C26.5418 10.2679 26.4496 10.0454 26.2856 9.88128C26.1215 9.71719 25.8989 9.625 25.6668 9.625Z" fill="black"/>
</svg>
