<svg width="28" height="28" viewBox="0 0 28 28" fill="none" xmlns="http://www.w3.org/2000/svg">
<path d="M3.5 18.6667V9.33333C3.5 7.78624 4.11458 6.30251 5.20854 5.20854C6.30251 4.11458 7.78624 3.5 9.33333 3.5H18.6667C20.2138 3.5 21.6975 4.11458 22.7915 5.20854C23.8854 6.30251 24.5 7.78624 24.5 9.33333V18.6667C24.5 20.2138 23.8854 21.6975 22.7915 22.7915C21.6975 23.8854 20.2138 24.5 18.6667 24.5H9.33333C7.78624 24.5 6.30251 23.8854 5.20854 22.7915C4.11458 21.6975 3.5 20.2138 3.5 18.6667Z" stroke="black" stroke-width="1.5"/>
<path d="M19.25 16.9166C19.25 16.9166 17.5 19.25 14 19.25C10.5 19.25 8.75 16.9166 8.75 16.9166" stroke="black" stroke-width="1.5" stroke-linecap="round" stroke-linejoin="round"/>
<path d="M9.91683 11.6667C9.76212 11.6667 9.61375 11.6052 9.50435 11.4958C9.39495 11.3864 9.3335 11.238 9.3335 11.0833C9.3335 10.9286 9.39495 10.7803 9.50435 10.6709C9.61375 10.5615 9.76212 10.5 9.91683 10.5C10.0715 10.5 10.2199 10.5615 10.3293 10.6709C10.4387 10.7803 10.5002 10.9286 10.5002 11.0833C10.5002 11.238 10.4387 11.3864 10.3293 11.4958C10.2199 11.6052 10.0715 11.6667 9.91683 11.6667ZM18.0835 11.6667C17.9288 11.6667 17.7804 11.6052 17.671 11.4958C17.5616 11.3864 17.5002 11.238 17.5002 11.0833C17.5002 10.9286 17.5616 10.7803 17.671 10.6709C17.7804 10.5615 17.9288 10.5 18.0835 10.5C18.2382 10.5 18.3866 10.5615 18.496 10.6709C18.6054 10.7803 18.6668 10.9286 18.6668 11.0833C18.6668 11.238 18.6054 11.3864 18.496 11.4958C18.3866 11.6052 18.2382 11.6667 18.0835 11.6667Z" fill="black" stroke="black" stroke-width="1.5" stroke-linecap="round" stroke-linejoin="round"/>
</svg>
