<?xml version="1.0" standalone="no"?>
<!DOCTYPE svg PUBLIC "-//W3C//DTD SVG 20010904//EN"
 "http://www.w3.org/TR/2001/REC-SVG-20010904/DTD/svg10.dtd">
<svg version="1.0" xmlns="http://www.w3.org/2000/svg"
 width="640.000000pt" height="640.000000pt" viewBox="0 0 640.000000 640.000000"
 preserveAspectRatio="xMidYMid meet">
<metadata>
Created by potrace 1.14, written by Peter Selinger 2001-2017
</metadata>
<g transform="translate(0.000000,640.000000) scale(0.100000,-0.100000)"
fill="#000000" stroke="none">
<path d="M1829 6396 c-2 -2 -28 -6 -57 -10 -90 -11 -193 -29 -284 -52 -10 -2
-26 -6 -35 -8 -162 -39 -506 -210 -648 -322 -16 -14 -35 -28 -40 -32 -117 -85
-319 -297 -400 -422 -17 -25 -32 -47 -35 -50 -9 -8 -85 -141 -118 -205 -57
-112 -140 -335 -156 -417 -2 -13 -11 -61 -20 -108 -9 -47 -20 -110 -24 -140
-10 -76 -9 -2767 1 -2860 4 -41 10 -84 12 -95 3 -11 7 -31 9 -45 27 -170 132
-461 213 -592 13 -21 23 -40 23 -42 0 -13 99 -157 161 -234 287 -358 650 -592
1085 -701 125 -31 155 -37 269 -49 90 -9 2748 -9 2835 0 36 4 79 10 95 13 17
3 56 10 88 16 76 13 238 62 334 100 522 206 942 636 1136 1159 34 92 70 213
82 275 42 220 40 130 40 1595 0 1230 -3 1478 -20 1555 -3 11 -7 31 -9 45 -46
276 -202 622 -390 860 -85 108 -194 221 -286 296 -19 16 -44 37 -55 47 -50 45
-339 227 -361 227 -2 0 -32 13 -67 29 -151 69 -334 122 -527 151 -105 16 -230
18 -1481 19 -751 0 -1368 -1 -1370 -3z"/>
</g>
</svg>
