<svg width="152" height="48" viewBox="0 0 152 48" fill="none" xmlns="http://www.w3.org/2000/svg">
<rect x="0.25" y="0.769287" width="151" height="46.4615" rx="6.96923" fill="#EEEEEF" fill-opacity="0.1"/>
<path fill-rule="evenodd" clip-rule="evenodd" d="M30.6816 24.4431C30.7069 22.4726 31.74 20.6524 33.4188 19.6203C32.3549 18.1009 30.6369 17.1721 28.7829 17.1141C26.8324 16.9094 24.9415 18.2812 23.9475 18.2812C22.9344 18.2812 21.404 17.1344 19.7561 17.1683C17.5879 17.2384 15.6155 18.4412 14.5607 20.3369C12.3142 24.2262 13.9899 29.9422 16.1417 33.086C17.2184 34.6254 18.4766 36.345 20.1231 36.2841C21.7342 36.2172 22.3359 35.2567 24.2807 35.2567C26.2074 35.2567 26.7719 36.2841 28.4518 36.2453C30.1806 36.2172 31.2698 34.699 32.3087 33.145C33.0822 32.0481 33.6775 30.8357 34.0724 29.5529C32.0191 28.6845 30.684 26.6725 30.6816 24.4431Z" fill="white"/>
<path fill-rule="evenodd" clip-rule="evenodd" d="M27.5087 15.0467C28.4513 13.9151 28.9157 12.4606 28.8032 10.9922C27.3631 11.1434 26.0329 11.8317 25.0775 12.9199C24.1341 13.9935 23.6562 15.3981 23.749 16.8243C25.2085 16.8393 26.5941 16.1841 27.5087 15.0467Z" fill="white"/>
<path d="M50.1995 16.071C49.8155 16.071 49.4615 16.026 49.1375 15.936C48.8135 15.846 48.5315 15.708 48.2915 15.522C48.0575 15.336 47.8745 15.102 47.7425 14.82C47.6105 14.538 47.5445 14.202 47.5445 13.812H48.3635C48.3695 14.1 48.4235 14.346 48.5255 14.55C48.6335 14.748 48.7715 14.91 48.9395 15.036C49.1135 15.156 49.3145 15.243 49.5425 15.297C49.7705 15.351 50.0135 15.378 50.2715 15.378C50.4935 15.378 50.7005 15.348 50.8925 15.288C51.0845 15.222 51.2495 15.132 51.3875 15.018C51.5315 14.898 51.6425 14.757 51.7205 14.595C51.8045 14.427 51.8465 14.241 51.8465 14.037C51.8465 13.803 51.8015 13.614 51.7115 13.47C51.6215 13.32 51.5015 13.206 51.3515 13.128C51.2075 13.044 51.0365 12.987 50.8385 12.957C50.6465 12.927 50.4425 12.912 50.2265 12.912C50.1365 12.912 50.0345 12.915 49.9205 12.921C49.8065 12.921 49.7165 12.924 49.6505 12.93V12.228C49.7225 12.24 49.8185 12.246 49.9385 12.246C50.0585 12.246 50.1545 12.246 50.2265 12.246C50.4305 12.246 50.6165 12.228 50.7845 12.192C50.9585 12.15 51.1055 12.084 51.2255 11.994C51.3515 11.904 51.4475 11.787 51.5135 11.643C51.5855 11.493 51.6215 11.31 51.6215 11.094C51.6215 10.896 51.5825 10.731 51.5045 10.599C51.4325 10.467 51.3305 10.362 51.1985 10.284C51.0725 10.2 50.9255 10.14 50.7575 10.104C50.5955 10.068 50.4245 10.05 50.2445 10.05C49.7705 10.05 49.3985 10.155 49.1285 10.365C48.8585 10.569 48.6995 10.905 48.6515 11.373H47.8325C47.8445 11.031 47.9135 10.734 48.0395 10.482C48.1715 10.224 48.3455 10.014 48.5615 9.852C48.7775 9.684 49.0295 9.558 49.3175 9.474C49.6115 9.39 49.9295 9.348 50.2715 9.348C50.5775 9.348 50.8625 9.384 51.1265 9.456C51.3965 9.522 51.6305 9.627 51.8285 9.771C52.0265 9.915 52.1825 10.098 52.2965 10.32C52.4105 10.536 52.4675 10.794 52.4675 11.094C52.4675 11.268 52.4375 11.43 52.3775 11.58C52.3175 11.73 52.2365 11.865 52.1345 11.985C52.0385 12.105 51.9245 12.21 51.7925 12.3C51.6665 12.384 51.5375 12.447 51.4055 12.489V12.516C51.6155 12.558 51.8015 12.63 51.9635 12.732C52.1255 12.828 52.2605 12.945 52.3685 13.083C52.4765 13.221 52.5575 13.374 52.6115 13.542C52.6655 13.71 52.6925 13.881 52.6925 14.055C52.6925 14.253 52.6475 14.469 52.5575 14.703C52.4675 14.937 52.3205 15.156 52.1165 15.36C51.9185 15.564 51.6605 15.735 51.3425 15.873C51.0305 16.005 50.6495 16.071 50.1995 16.071ZM55.7282 9.501H56.6732L59.1842 15.927H58.2392L57.5372 13.992H54.8192L54.0992 15.927H53.2262L55.7282 9.501ZM57.2672 13.272L56.1962 10.275H56.1782L55.0892 13.272H57.2672ZM60.0521 9.501H64.2281V10.221H60.9071V15.927H60.0521V9.501ZM65.1264 9.501H67.9434C68.5974 9.501 69.0894 9.669 69.4194 10.005C69.7494 10.335 69.9144 10.8 69.9144 11.4C69.9144 12 69.7494 12.468 69.4194 12.804C69.0894 13.134 68.5974 13.299 67.9434 13.299H65.9814V15.927H65.1264V9.501ZM67.6554 12.579C68.1414 12.579 68.4954 12.48 68.7174 12.282C68.9454 12.078 69.0594 11.784 69.0594 11.4C69.0594 11.016 68.9454 10.725 68.7174 10.527C68.4954 10.323 68.1414 10.221 67.6554 10.221H65.9814V12.579H67.6554ZM72.0783 16.026C71.9763 16.026 71.8743 16.014 71.7723 15.99C71.6763 15.972 71.5953 15.948 71.5293 15.918V15.153C71.6073 15.189 71.6853 15.219 71.7633 15.243C71.8473 15.261 71.9403 15.27 72.0423 15.27C72.2043 15.27 72.3573 15.213 72.5013 15.099C72.6453 14.985 72.7713 14.814 72.8793 14.586L72.9873 14.361L70.4493 9.501H71.3763L73.4373 13.524L75.0393 9.501H75.9483L73.7883 14.469C73.6623 14.769 73.5333 15.018 73.4013 15.216C73.2693 15.414 73.1343 15.573 72.9963 15.693C72.8583 15.813 72.7113 15.897 72.5553 15.945C72.4053 15.999 72.2463 16.026 72.0783 16.026ZM79.1103 16.071C78.7263 16.071 78.3723 16.026 78.0483 15.936C77.7243 15.846 77.4423 15.708 77.2023 15.522C76.9683 15.336 76.7853 15.102 76.6533 14.82C76.5213 14.538 76.4553 14.202 76.4553 13.812H77.2743C77.2803 14.1 77.3343 14.346 77.4363 14.55C77.5443 14.748 77.6823 14.91 77.8503 15.036C78.0243 15.156 78.2253 15.243 78.4533 15.297C78.6813 15.351 78.9243 15.378 79.1823 15.378C79.4043 15.378 79.6113 15.348 79.8033 15.288C79.9953 15.222 80.1603 15.132 80.2983 15.018C80.4423 14.898 80.5533 14.757 80.6313 14.595C80.7153 14.427 80.7573 14.241 80.7573 14.037C80.7573 13.803 80.7123 13.614 80.6223 13.47C80.5323 13.32 80.4123 13.206 80.2623 13.128C80.1183 13.044 79.9473 12.987 79.7493 12.957C79.5573 12.927 79.3533 12.912 79.1373 12.912C79.0473 12.912 78.9453 12.915 78.8313 12.921C78.7173 12.921 78.6273 12.924 78.5613 12.93V12.228C78.6333 12.24 78.7293 12.246 78.8493 12.246C78.9693 12.246 79.0653 12.246 79.1373 12.246C79.3413 12.246 79.5273 12.228 79.6953 12.192C79.8693 12.15 80.0163 12.084 80.1363 11.994C80.2623 11.904 80.3583 11.787 80.4243 11.643C80.4963 11.493 80.5323 11.31 80.5323 11.094C80.5323 10.896 80.4933 10.731 80.4153 10.599C80.3433 10.467 80.2413 10.362 80.1093 10.284C79.9833 10.2 79.8363 10.14 79.6683 10.104C79.5063 10.068 79.3353 10.05 79.1553 10.05C78.6813 10.05 78.3093 10.155 78.0393 10.365C77.7693 10.569 77.6103 10.905 77.5623 11.373H76.7433C76.7553 11.031 76.8243 10.734 76.9503 10.482C77.0823 10.224 77.2563 10.014 77.4723 9.852C77.6883 9.684 77.9403 9.558 78.2283 9.474C78.5223 9.39 78.8403 9.348 79.1823 9.348C79.4883 9.348 79.7733 9.384 80.0373 9.456C80.3073 9.522 80.5413 9.627 80.7393 9.771C80.9373 9.915 81.0933 10.098 81.2073 10.32C81.3213 10.536 81.3783 10.794 81.3783 11.094C81.3783 11.268 81.3483 11.43 81.2883 11.58C81.2283 11.73 81.1473 11.865 81.0453 11.985C80.9493 12.105 80.8353 12.21 80.7033 12.3C80.5773 12.384 80.4483 12.447 80.3163 12.489V12.516C80.5263 12.558 80.7123 12.63 80.8743 12.732C81.0363 12.828 81.1713 12.945 81.2793 13.083C81.3873 13.221 81.4683 13.374 81.5223 13.542C81.5763 13.71 81.6033 13.881 81.6033 14.055C81.6033 14.253 81.5583 14.469 81.4683 14.703C81.3783 14.937 81.2313 15.156 81.0273 15.36C80.8293 15.564 80.5713 15.735 80.2533 15.873C79.9413 16.005 79.5603 16.071 79.1103 16.071ZM82.8929 9.501H83.7479V14.946L86.9789 9.501H88.0589V15.927H87.2039V10.464L83.9639 15.927H82.8929V9.501ZM91.1052 10.221H88.9632V9.501H94.1022V10.221H91.9602V15.927H91.1052V10.221ZM94.9951 9.501H99.4321V10.221H95.8501V12.264H99.1891V12.984H95.8501V15.207H99.4591V15.927H94.9951V9.501ZM103.362 9.501H105.693C105.831 9.501 105.978 9.504 106.134 9.51C106.296 9.51 106.455 9.519 106.611 9.537C106.767 9.549 106.914 9.57 107.052 9.6C107.19 9.63 107.304 9.675 107.394 9.735C107.604 9.861 107.781 10.035 107.925 10.257C108.075 10.479 108.15 10.752 108.15 11.076C108.15 11.418 108.066 11.715 107.898 11.967C107.736 12.213 107.502 12.396 107.196 12.516V12.534C107.592 12.618 107.895 12.798 108.105 13.074C108.315 13.35 108.42 13.686 108.42 14.082C108.42 14.316 108.378 14.544 108.294 14.766C108.21 14.988 108.084 15.186 107.916 15.36C107.754 15.528 107.55 15.666 107.304 15.774C107.064 15.876 106.785 15.927 106.467 15.927H103.362V9.501ZM106.359 15.207C106.737 15.207 107.031 15.105 107.241 14.901C107.457 14.697 107.565 14.415 107.565 14.055C107.565 13.845 107.526 13.671 107.448 13.533C107.37 13.395 107.265 13.287 107.133 13.209C107.007 13.125 106.86 13.068 106.692 13.038C106.524 13.002 106.35 12.984 106.17 12.984H104.217V15.207H106.359ZM105.927 12.264C106.413 12.264 106.761 12.18 106.971 12.012C107.187 11.838 107.295 11.58 107.295 11.238C107.295 11.016 107.259 10.839 107.187 10.707C107.115 10.569 107.016 10.464 106.89 10.392C106.764 10.32 106.617 10.275 106.449 10.257C106.287 10.233 106.113 10.221 105.927 10.221H104.217V12.264H105.927Z" fill="white"/>
<path d="M66.8647 26.0653C69.5337 26.0653 71.293 28.1751 71.293 31.434C71.293 34.702 69.5439 36.8016 66.9044 36.8016C65.54 36.873 64.2549 36.1584 63.5956 34.9617H63.5456V40.1705H61.387V26.1753H63.4765V27.9245H63.5162C64.2047 26.7353 65.4913 26.021 66.8647 26.0653ZM78.4392 26.0653C81.1083 26.0653 82.8676 28.1751 82.8676 31.434C82.8676 34.702 81.1185 36.8016 78.4789 36.8016C77.1146 36.873 75.8294 36.1584 75.1701 34.9617H75.1202V40.1705H72.9616V26.1753H75.051V27.9245H75.0907C75.7792 26.7353 77.0658 26.021 78.4392 26.0653ZM93.9362 22.0271C96.9841 22.0271 99.0735 23.7365 99.1439 26.2252H96.9648C96.8344 24.7858 95.6445 23.9169 93.9056 23.9169C92.1667 23.9169 90.9768 24.796 90.9768 26.0755C90.9768 27.0952 91.7368 27.6953 93.5959 28.1546L95.1851 28.5448C98.1445 29.2447 99.3741 30.4335 99.3741 32.5433C99.3741 35.2418 97.2246 36.932 93.8058 36.932C90.607 36.932 88.4473 35.2815 88.3077 32.6726L90.5174 32.6727C90.6773 34.1031 92.0669 35.0422 93.9657 35.0422C95.7852 35.0422 97.0942 34.103 97.0942 32.8133C97.0942 31.6937 96.3047 31.0234 94.4353 30.564L92.566 30.1136C89.9174 29.4739 88.6878 28.2352 88.6878 26.2252C88.6878 23.7365 90.8566 22.0271 93.9362 22.0271ZM112.178 26.046C115.227 26.046 117.167 28.1252 117.167 31.434C117.167 34.7519 115.238 36.822 112.178 36.822C109.12 36.822 107.191 34.7519 107.191 31.434C107.191 28.1252 109.139 26.046 112.178 26.046ZM129.658 26.046C132.568 26.046 134.397 28.0447 134.397 31.2333V31.9728H126.97V32.1033C126.9 32.8862 127.171 33.6612 127.712 34.2311C128.253 34.801 129.013 35.1109 129.799 35.082C130.846 35.1801 131.834 34.5786 132.227 33.6028L134.277 33.6028C133.987 35.5119 132.127 36.822 129.749 36.822C126.69 36.822 124.791 34.7723 124.791 31.4839C124.791 28.1854 126.7 26.046 129.658 26.046ZM104.033 23.6867V26.1753H106.033V27.8848H104.033V33.6822C104.033 34.5829 104.433 35.0026 105.312 35.0026C105.55 34.9984 105.787 34.9818 106.022 34.9526V36.6518C105.627 36.7257 105.225 36.7591 104.823 36.7517C102.694 36.7517 101.864 35.952 101.864 33.9125V27.8848H100.335V26.1753H101.864V23.6867H104.033ZM54.8387 22.2676L60.0463 36.6916H57.6778L56.3586 32.7929H50.8606L49.5403 36.6916H47.2115L52.4192 22.2676H54.8387ZM123.585 26.0653C123.834 26.0644 124.082 26.0915 124.325 26.1458V28.1649C124.011 28.069 123.683 28.0249 123.355 28.0345C122.72 28.0087 122.106 28.2617 121.673 28.7268C121.241 29.192 121.033 29.8229 121.105 30.454V36.6916H118.947V26.1753H121.006V27.9653H121.055C121.343 26.813 122.398 26.02 123.585 26.0653ZM112.178 27.8247C110.429 27.8247 109.39 29.1745 109.39 31.434C109.39 33.7129 110.429 35.0423 112.178 35.0423C113.927 35.0423 114.968 33.7129 114.968 31.434C114.968 29.1643 113.927 27.8247 112.178 27.8247ZM66.2952 27.9052C64.6459 27.9052 63.5366 29.3344 63.5366 31.434C63.5366 33.5529 64.6459 34.972 66.2952 34.972C67.974 34.972 69.0743 33.5824 69.0743 31.434C69.0743 29.3049 67.974 27.9052 66.2952 27.9052ZM77.8698 27.9052C76.2205 27.9052 75.1111 29.3344 75.1111 31.434C75.1111 33.5529 76.2205 34.972 77.8698 34.972C79.5486 34.972 80.6489 33.5824 80.6489 31.434C80.6489 29.3049 79.5486 27.9052 77.8698 27.9052ZM53.6397 24.6667H53.5796L51.43 30.9939H55.7881L53.6397 24.6667ZM129.658 27.7951C128.948 27.7909 128.266 28.0705 127.763 28.5717C127.26 29.0729 126.978 29.7542 126.98 30.4642H132.238C132.277 29.7607 132.021 29.0727 131.531 28.5661C131.041 28.0594 130.363 27.78 129.658 27.7951Z" fill="white"/>
</svg>
