<svg width="74" height="74" viewBox="0 0 74 74" fill="none" xmlns="http://www.w3.org/2000/svg">
<g opacity="0.6">
<path d="M65.1931 14.6136C77.7088 30.5032 74.9741 53.5299 59.0845 66.0455C43.1949 78.5611 20.1683 75.8264 7.65262 59.9368C-4.86302 44.0472 -1.46775 21.8162 13.7613 8.50497C29.8324 -5.54257 52.6767 -1.27599 65.1931 14.6136Z" fill="#EEEEEF"/>
<path d="M44.0347 27.2167C47.9604 32.2007 47.1025 39.423 42.1185 43.3494C37.1345 47.2751 29.9122 46.4172 25.9866 41.4332C22.0609 36.4492 23.1256 29.4763 27.9028 25.3013C32.9436 20.895 40.1091 22.2335 44.0347 27.2167Z" fill="white"/>
<path d="M57.5685 58.442C41.6789 70.9576 18.6522 68.2229 6.13658 52.3333C3.38611 48.8418 1.40593 45.0432 0.148682 41.101C0.732713 47.7258 3.16434 54.2393 7.6527 59.9368C20.1683 75.8264 43.1958 78.5611 59.0846 66.0454C71.3706 56.3679 75.7831 40.4088 71.3713 26.321C72.4565 38.2527 67.6817 50.4763 57.5685 58.442Z" fill="#CFCFCF"/>
<path d="M44.0346 27.217C40.109 22.233 32.9435 20.8944 27.9027 25.3007C24.1823 28.5524 22.7277 33.4985 24.1144 37.8827C24.4719 34.9688 25.9336 32.1521 28.3415 30.0464C33.3824 25.6401 40.5478 26.9786 44.4742 31.9626C45.3755 33.107 46.0132 34.3722 46.4181 35.6854C46.7654 32.7645 45.999 29.7109 44.0346 27.217Z" fill="#CFCFCF"/>
<path d="M50.4542 54.7988C51.4186 54.9724 52.3831 55.1453 53.3475 55.3189C53.7469 55.3907 54.1265 55.3813 54.488 55.1698C54.795 54.9898 55.0878 54.6378 55.1683 54.285C55.2543 53.9062 55.2362 53.4808 55.0191 53.1446C54.821 52.8376 54.5085 52.5322 54.1344 52.4643C53.1699 52.2907 52.2055 52.1178 51.2411 51.9442C50.8417 51.8723 50.4621 51.8818 50.1006 52.0933C49.7936 52.2733 49.5008 52.6253 49.4203 52.9781C49.3343 53.3569 49.3524 53.7823 49.5695 54.1185C49.7676 54.4255 50.0801 54.7317 50.4542 54.7988Z" fill="#CFCFCF"/>
<path d="M56.7088 44.6597C57.0277 44.2603 57.3923 43.902 57.7956 43.5879C57.6962 43.6653 57.5959 43.7418 57.4965 43.8192C57.7932 43.5911 58.1089 43.389 58.4404 43.2154C58.6125 43.1223 58.7514 42.9952 58.8555 42.8342C58.9866 42.6913 59.075 42.5232 59.1207 42.3307C59.1823 42.1341 59.191 41.9376 59.1476 41.7403C59.1389 41.543 59.0797 41.3599 58.9716 41.1902C58.7679 40.8745 58.4641 40.5959 58.0876 40.5099C57.9566 40.4926 57.8256 40.4744 57.6938 40.457C57.427 40.4578 57.1776 40.5249 56.9472 40.6591C56.4468 40.9211 55.9938 41.2534 55.5573 41.6109C55.2109 41.895 54.896 42.2154 54.6166 42.5659C54.4722 42.7 54.3703 42.8587 54.3104 43.0418C54.218 43.2178 54.1754 43.408 54.1833 43.6116C54.1754 43.8152 54.218 44.0054 54.3104 44.1814C54.3703 44.3645 54.4722 44.524 54.6166 44.6573C54.8983 44.9162 55.2685 45.1088 55.6631 45.0906C55.7941 45.0733 55.9251 45.0551 56.0561 45.0377C56.3063 44.9699 56.5242 44.8436 56.7088 44.6597Z" fill="#CFCFCF"/>
<path d="M54.5172 34.331C54.3602 33.5639 54.2023 32.796 54.0453 32.0289C53.9734 31.6792 53.6656 31.3201 53.365 31.1449C53.0477 30.9595 52.5805 30.8805 52.2245 30.9957C51.8662 31.1118 51.5213 31.3335 51.3398 31.6761C51.2901 31.7936 51.2403 31.9121 51.1906 32.0297C51.1204 32.2917 51.1204 32.5545 51.1906 32.8165C51.3477 33.5836 51.5055 34.3515 51.6626 35.1187C51.7344 35.4683 52.0422 35.8274 52.3429 36.0034C52.6602 36.1889 53.1274 36.2678 53.4833 36.1526C53.8417 36.0366 54.1865 35.8148 54.3681 35.4723C54.4178 35.3547 54.4675 35.2363 54.5172 35.1187C54.5875 34.8559 54.5875 34.5931 54.5172 34.331Z" fill="#CFCFCF"/>
<path d="M56.8352 31.9215C57.7957 32.3966 58.757 32.8725 59.7175 33.3476C60.0766 33.5252 60.461 33.6057 60.858 33.4968C61.2013 33.4021 61.573 33.1369 61.7427 32.8165C61.9242 32.4731 62.015 32.0572 61.8918 31.676C61.7782 31.324 61.5556 30.9618 61.2115 30.7921C60.251 30.317 59.2897 29.8411 58.3293 29.366C57.9702 29.1884 57.5858 29.1071 57.1888 29.2168C56.8455 29.3115 56.4738 29.5767 56.3041 29.8971C56.1226 30.2404 56.0318 30.6563 56.1549 31.0375C56.2694 31.3887 56.4919 31.751 56.8352 31.9215Z" fill="#CFCFCF"/>
<path d="M44.5121 18.6529C45.6714 18.5606 46.8316 18.469 47.991 18.3767C48.3888 18.3451 48.7479 18.233 49.0375 17.9434C49.294 17.6869 49.4874 17.2654 49.4708 16.8969C49.4534 16.5141 49.3279 16.1171 49.0375 15.8504C48.7613 15.597 48.3793 15.3863 47.991 15.4171C46.8316 15.5094 45.6714 15.601 44.5121 15.6933C44.1143 15.7249 43.7552 15.8369 43.4655 16.1266C43.209 16.3831 43.0157 16.8045 43.0322 17.1731C43.0496 17.5559 43.1751 17.9529 43.4655 18.2196C43.7425 18.473 44.1245 18.6837 44.5121 18.6529Z" fill="#CFCFCF"/>
<path d="M31.1574 15.2789C30.9522 14.7951 30.747 14.3113 30.5418 13.8275C30.4487 13.6546 30.3216 13.5165 30.1606 13.4123C30.0178 13.2813 29.8497 13.1929 29.6571 13.1472C29.4606 13.0856 29.264 13.0769 29.0667 13.1203C28.8702 13.129 28.6863 13.1882 28.5166 13.2963C28.4164 13.3737 28.317 13.4502 28.2167 13.5276C28.0336 13.7123 27.9066 13.9301 27.8363 14.1803C27.819 14.3113 27.8008 14.4423 27.7834 14.5733C27.7842 14.8401 27.8513 15.0895 27.9855 15.3199C28.1907 15.8037 28.3959 16.2875 28.6011 16.7713C28.6942 16.9434 28.8213 17.0823 28.9823 17.1865C29.1251 17.3175 29.2932 17.4059 29.4858 17.4516C29.6823 17.5132 29.8789 17.5219 30.0762 17.4785C30.2735 17.4698 30.4566 17.4106 30.6263 17.3025C30.7257 17.2251 30.8259 17.1486 30.9254 17.0712C31.1085 16.8866 31.2355 16.6687 31.3058 16.4185C31.3232 16.2875 31.3413 16.1565 31.3587 16.0255C31.3579 15.7587 31.2908 15.5101 31.1574 15.2789Z" fill="#CFCFCF"/>
<path d="M15.1346 24.7086C15.8315 24.9225 16.5276 25.1364 17.2245 25.351C17.421 25.4126 17.6175 25.4213 17.8149 25.3779C18.0122 25.3692 18.1953 25.31 18.3649 25.2019C18.5378 25.1087 18.6759 24.9817 18.7801 24.8207C18.9111 24.6778 18.9995 24.5097 19.0453 24.3171C19.1313 23.9383 19.1131 23.5129 18.8961 23.1767C18.6838 22.8468 18.3918 22.6132 18.0114 22.4964C17.3145 22.2825 16.6184 22.0686 15.9215 21.854C15.725 21.7924 15.5277 21.7837 15.3311 21.8271C15.1346 21.8358 14.9507 21.895 14.781 22.0031C14.609 22.0962 14.4701 22.2233 14.3659 22.3843C14.2349 22.5272 14.1465 22.6953 14.1007 22.8878C14.0147 23.2667 14.0329 23.6921 14.2499 24.0283C14.463 24.3582 14.755 24.5918 15.1346 24.7086Z" fill="#CFCFCF"/>
<path d="M19.851 47.3587C19.3159 45.6461 18.5945 43.9824 17.7019 42.4252C17.3168 41.7536 16.3452 41.4639 15.6775 41.8941C14.9996 42.3313 14.7344 43.2002 15.1464 43.9184C15.6112 44.729 16.0264 45.5656 16.3902 46.4258C16.3405 46.3082 16.2908 46.1899 16.241 46.0723C16.5252 46.751 16.7777 47.4423 16.9971 48.1448C17.2276 48.8827 18.0389 49.4304 18.8171 49.1787C19.559 48.9395 20.098 48.1503 19.851 47.3587Z" fill="#CFCFCF"/>
<path d="M9.81657 47.3453C9.52771 46.4574 9.23964 45.5704 8.95157 44.6825C8.83319 44.3178 8.60747 43.995 8.27126 43.7977C7.95398 43.6123 7.48676 43.5333 7.13082 43.6486C6.7725 43.7646 6.42761 43.9864 6.24608 44.3289C6.06456 44.6722 5.97301 45.0889 6.09692 45.4693C6.38499 46.3572 6.67385 47.2443 6.96192 48.1322C7.0803 48.4968 7.30602 48.8196 7.64224 49.0169C7.95951 49.2024 8.42673 49.2813 8.78268 49.1661C9.14099 49.0501 9.48588 48.8283 9.66741 48.4858C9.84893 48.1425 9.94048 47.7257 9.81657 47.3453Z" fill="#CFCFCF"/>
<path d="M8.53018 37.236C9.60511 37.0379 10.6793 36.8406 11.7542 36.6425C12.1007 36.5786 12.4669 36.2565 12.6381 35.9622C12.8236 35.6449 12.9025 35.1777 12.7873 34.8217C12.6713 34.4634 12.4495 34.1185 12.107 33.937C11.7376 33.7421 11.3769 33.7121 10.9665 33.7878C9.8916 33.9859 8.81746 34.1832 7.74252 34.3813C7.39605 34.4453 7.02985 34.7673 6.8578 35.0617C6.67233 35.3789 6.5934 35.8462 6.70863 36.2021C6.82465 36.5604 7.04642 36.9053 7.38895 37.0868C7.7591 37.2818 8.11978 37.311 8.53018 37.236Z" fill="#CFCFCF"/>
<path d="M29.8308 56.8035C31.0383 57.1413 32.2458 57.4783 33.4533 57.8161C33.8227 57.9195 34.2639 57.8603 34.5938 57.667C34.9008 57.487 35.1936 57.135 35.2741 56.7822C35.4532 55.9977 35.0381 55.1848 34.2402 54.9623C33.0327 54.6245 31.8251 54.2875 30.6176 53.9497C30.2483 53.8463 29.8071 53.9055 29.4772 54.0988C29.1702 54.2788 28.8774 54.6308 28.7969 54.9836C28.6185 55.7673 29.0328 56.5802 29.8308 56.8035Z" fill="#CFCFCF"/>
<path d="M26.4765 58.9243C26.4323 58.8564 26.3936 58.7854 26.3613 58.7112C26.411 58.8288 26.4607 58.9471 26.5104 59.0647C26.4599 58.9448 26.426 58.8201 26.4062 58.6914C26.4236 58.8225 26.4418 58.9535 26.4591 59.0845C26.441 58.9472 26.4402 58.8098 26.4575 58.6725C26.4402 58.8035 26.422 58.9345 26.4047 59.0663C26.4228 58.9377 26.4568 58.813 26.5065 58.6922C26.4568 58.8098 26.407 58.9282 26.3573 59.0458C26.3865 58.9787 26.4197 58.914 26.4583 58.8525C26.5665 58.6828 26.6249 58.4989 26.6343 58.3023C26.6785 58.1058 26.6698 57.9085 26.6075 57.712C26.5617 57.5194 26.4733 57.3513 26.3423 57.2085C26.2381 57.0475 26.0992 56.9204 25.9272 56.8273C25.5839 56.6458 25.1679 56.555 24.7867 56.6781C24.6691 56.7278 24.5508 56.7776 24.4332 56.8273C24.2106 56.9591 24.0338 57.1359 23.902 57.3584C23.8633 57.4208 23.8302 57.4847 23.801 57.5518C23.7244 57.7262 23.6384 57.9038 23.5887 58.0885C23.5374 58.2779 23.5208 58.4784 23.4971 58.6725C23.4885 58.7451 23.4829 58.8177 23.4837 58.8911C23.4853 59.0221 23.5074 59.1524 23.5248 59.2818C23.5429 59.4168 23.5563 59.5501 23.5942 59.6803C23.6471 59.8642 23.7315 60.0434 23.8097 60.2162C23.8412 60.2865 23.8783 60.3536 23.9202 60.4183C24.0133 60.5903 24.1404 60.7292 24.3014 60.8334C24.4442 60.9644 24.6123 61.0528 24.8049 61.0986C25.0014 61.1602 25.1979 61.1688 25.3952 61.1246C25.5925 61.116 25.7756 61.0576 25.9453 60.9494C26.261 60.7458 26.5396 60.4419 26.6257 60.0647C26.643 59.9337 26.6612 59.8027 26.6785 59.6717C26.6777 59.4033 26.6107 59.1547 26.4765 58.9243Z" fill="#CFCFCF"/>
<path d="M39.7751 59.5476C39.8785 59.7236 39.9921 59.8933 40.116 60.0558C40.311 60.3116 40.5051 60.5665 40.7301 60.7969C40.8729 60.9429 41.0244 61.0803 41.1839 61.2073C41.4348 61.407 41.6882 61.6051 41.9613 61.774C42.1309 61.8821 42.3148 61.9405 42.5113 61.95C42.7079 61.9942 42.9052 61.9855 43.1017 61.9232C43.2943 61.8774 43.4616 61.789 43.6052 61.658C43.7662 61.5538 43.8933 61.4157 43.9864 61.2428C44.1679 60.8995 44.2587 60.4836 44.1356 60.1024C44.0148 59.7299 43.7931 59.426 43.4553 59.2177C43.3053 59.1253 43.1601 59.0251 43.0212 58.917C43.1206 58.9943 43.2209 59.0709 43.3203 59.1482C42.9983 58.8965 42.7087 58.6068 42.4569 58.2848C42.5342 58.3843 42.6116 58.4845 42.6881 58.5839C42.5579 58.415 42.4387 58.2383 42.3306 58.0536C42.2375 57.8807 42.1104 57.7426 41.9494 57.6384C41.8066 57.5074 41.6385 57.419 41.4459 57.3733C41.2494 57.3117 41.0521 57.303 40.8555 57.3464C40.659 57.3551 40.4751 57.4143 40.3054 57.5224C39.9898 57.726 39.7112 58.0299 39.6251 58.4071C39.5367 58.7955 39.5699 59.1972 39.7751 59.5476Z" fill="#CFCFCF"/>
<path d="M33.163 51.1635C34.0856 51.3751 35.0477 51.4761 35.994 51.4232C36.3862 51.4011 36.7572 51.2732 37.0405 50.9899C37.297 50.7334 37.4904 50.312 37.4738 49.9434C37.4564 49.5606 37.3309 49.1636 37.0405 48.8969C36.7603 48.6396 36.3862 48.4415 35.994 48.4636C35.4431 48.4944 34.8922 48.4738 34.3453 48.4012C34.4763 48.4186 34.6073 48.4367 34.7383 48.4541C34.4731 48.4178 34.2103 48.3697 33.9491 48.3097C33.5647 48.2213 33.1543 48.2568 32.8086 48.4588C32.5016 48.6388 32.2088 48.99 32.1283 49.3428C32.0423 49.7216 32.0604 50.147 32.2775 50.4832C32.4827 50.7997 32.7857 51.0775 33.163 51.1635Z" fill="#CFCFCF"/>
<path d="M20.9669 32.5046C20.5959 32.0342 20.225 31.5631 19.8548 31.0927C19.7207 30.9482 19.562 30.8464 19.3789 30.7864C19.2029 30.6941 19.0127 30.6515 18.8091 30.6594C18.6055 30.6515 18.4153 30.6941 18.2393 30.7864C18.0554 30.8464 17.8967 30.9482 17.7634 31.0927C17.686 31.1921 17.6087 31.2923 17.5321 31.3926C17.3979 31.623 17.3309 31.8724 17.3301 32.1392C17.3474 32.2702 17.3656 32.4012 17.383 32.533C17.4532 32.784 17.5803 33.001 17.7634 33.1857C18.1343 33.6561 18.5045 34.1273 18.8754 34.5977C19.0096 34.7421 19.1682 34.8439 19.3513 34.9039C19.5281 34.9962 19.7175 35.0388 19.9211 35.0309C20.1247 35.0388 20.315 34.9962 20.4909 34.9039C20.6741 34.8439 20.8335 34.7421 20.9676 34.5977C21.045 34.4974 21.1215 34.398 21.1989 34.2977C21.3331 34.0673 21.4001 33.8179 21.4009 33.5511C21.3836 33.4201 21.3654 33.2891 21.3481 33.1573C21.2778 32.9071 21.1508 32.6893 20.9669 32.5046Z" fill="#CFCFCF"/>
<path d="M8.6983 26.1348C8.71093 25.8002 8.73934 25.4671 8.78196 25.1348C8.7646 25.2659 8.74645 25.3969 8.72908 25.5287C8.83879 24.7189 9.03846 23.9258 9.32653 23.161C9.45518 22.8208 9.35415 22.3228 9.17737 22.0205C8.99742 21.7135 8.64543 21.4207 8.29343 21.3402C7.9146 21.2542 7.4892 21.2724 7.15299 21.4894C6.81204 21.7088 6.61552 21.9953 6.47267 22.3741C6.02044 23.573 5.78762 24.8562 5.73868 26.1348C5.70869 26.909 6.44031 27.6493 7.21849 27.6146C8.04561 27.5775 8.66595 26.9643 8.6983 26.1348Z" fill="#CFCFCF"/>
<path d="M27.7347 7.2958C27.8522 7.27685 27.9706 7.25951 28.089 7.24372C27.958 7.26109 27.827 7.27923 27.696 7.29659C28.7638 7.15847 29.8411 7.15927 30.9097 7.29738C30.7787 7.28002 30.6477 7.26186 30.5167 7.24449C30.9011 7.29737 31.283 7.36683 31.6611 7.45286C32.414 7.62491 33.2987 7.2224 33.4818 6.41896C33.6531 5.66604 33.2553 4.78289 32.4479 4.599C30.6225 4.18228 28.793 4.14834 26.9486 4.44193C26.6053 4.49639 26.232 4.83576 26.0639 5.12225C25.8784 5.43952 25.7995 5.90675 25.9147 6.2627C26.0307 6.62101 26.2525 6.96591 26.595 7.14743C26.9683 7.34395 27.3203 7.36209 27.7347 7.2958Z" fill="#CFCFCF"/>
<path d="M41.663 9.67546C41.7245 9.50735 41.7893 9.34081 41.8587 9.17665C41.809 9.29424 41.7593 9.41263 41.7095 9.53022C42.0536 8.72126 42.4964 7.95967 43.0299 7.26041C43.2462 6.97708 43.2691 6.44592 43.1791 6.11996C43.0844 5.77665 42.8192 5.40492 42.4988 5.23523C42.1555 5.05371 41.7395 4.96295 41.3583 5.08607C41.2407 5.13579 41.1223 5.18551 41.0048 5.23523C40.7822 5.36704 40.6054 5.54383 40.4736 5.76639C39.7514 6.71268 39.2163 7.77261 38.8083 8.88859C38.6828 9.2319 38.7783 9.7236 38.9575 10.029C39.1374 10.336 39.4894 10.6288 39.8414 10.7094C40.2203 10.7954 40.6457 10.7772 40.9819 10.5602C41.0821 10.4828 41.1815 10.4063 41.2818 10.3289C41.4657 10.1435 41.5927 9.92643 41.663 9.67546Z" fill="#CFCFCF"/>
<path d="M57.0648 18.244C58.1366 18.3364 59.2091 18.4279 60.2809 18.5203C60.6392 18.551 61.0812 18.3332 61.3274 18.087C61.5839 17.8305 61.7773 17.409 61.7607 17.0405C61.7433 16.6577 61.6179 16.2607 61.3274 15.9939C61.0244 15.7153 60.6913 15.5954 60.2809 15.5606C59.2091 15.4683 58.1366 15.3767 57.0648 15.2844C56.7065 15.2536 56.2645 15.4715 56.0183 15.7177C55.7618 15.9742 55.5684 16.3956 55.585 16.7642C55.6023 17.147 55.7278 17.544 56.0183 17.8107C56.3213 18.0893 56.6544 18.2093 57.0648 18.244Z" fill="#CFCFCF"/>
<path d="M69.4052 31.3839C69.2781 30.4834 69.151 29.5836 69.0248 28.6831C68.9766 28.343 68.6262 27.9634 68.3444 27.7992C68.0272 27.6137 67.5599 27.5348 67.204 27.65C66.8457 27.7661 66.5008 27.9878 66.3193 28.3304C66.2696 28.448 66.2198 28.5663 66.1701 28.6839C66.0999 28.946 66.0999 29.2088 66.1701 29.4708C66.2972 30.3713 66.4242 31.271 66.5505 32.1716C66.5987 32.5117 66.9491 32.8913 67.2308 33.0563C67.5481 33.2418 68.0153 33.3207 68.3713 33.2054C68.7296 33.0894 69.0745 32.8677 69.256 32.5251C69.3057 32.4075 69.3555 32.2891 69.4052 32.1716C69.4754 31.9087 69.4754 31.6459 69.4052 31.3839Z" fill="#CFCFCF"/>
<path d="M64.49 49.4827C64.8191 48.9311 65.1474 48.3802 65.4765 47.8285C65.5846 47.6588 65.643 47.4749 65.6525 47.2784C65.6967 47.0819 65.688 46.8846 65.6257 46.6881C65.5799 46.4955 65.4915 46.3274 65.3605 46.1845C65.2563 46.0235 65.1174 45.8965 64.9453 45.8033C64.602 45.6218 64.1861 45.5311 63.8049 45.6542C63.4355 45.7734 63.1222 45.9959 62.9202 46.3345C62.5911 46.8862 62.2627 47.437 61.9336 47.9887C61.8255 48.1584 61.7671 48.3423 61.7576 48.5388C61.7134 48.7353 61.7221 48.9319 61.7845 49.1292C61.8302 49.3217 61.9186 49.4898 62.0496 49.6327C62.1538 49.7937 62.2927 49.9208 62.4648 50.0139C62.8081 50.1954 63.224 50.2862 63.6052 50.1631C63.9746 50.0431 64.2879 49.8213 64.49 49.4827Z" fill="#CFCFCF"/>
<path d="M45.1836 45.4276C45.4377 45.8072 45.654 46.2089 45.8315 46.6296C45.7818 46.512 45.7321 46.3936 45.6824 46.276C45.8008 46.5609 45.901 46.8522 45.9823 47.1497C46.0809 47.508 46.3414 47.8466 46.6626 48.0336C46.8323 48.1418 47.0162 48.2002 47.2127 48.2096C47.4092 48.2538 47.6057 48.2452 47.803 48.1828C48.1614 48.0668 48.5063 47.845 48.687 47.5025C48.8732 47.1497 48.9435 46.7543 48.8362 46.362C48.7028 45.8751 48.5141 45.4079 48.3058 44.9485C48.1456 44.595 47.9546 44.2556 47.7391 43.9328C47.5237 43.6116 47.2356 43.3575 46.8544 43.2525C46.6579 43.1909 46.4614 43.1822 46.264 43.2264C46.0667 43.2351 45.8836 43.2935 45.7139 43.4017C45.3983 43.6053 45.1197 43.9091 45.0336 44.2864C44.9492 44.6628 44.9626 45.0977 45.1836 45.4276Z" fill="#CFCFCF"/>
<path d="M18.7152 13.3776C18.69 13.2995 18.6718 13.2206 18.6608 13.1393C18.6781 13.2703 18.6963 13.4013 18.7136 13.5323C18.7002 13.4195 18.701 13.3066 18.7152 13.1937C18.6979 13.3247 18.6797 13.4558 18.6623 13.5876C18.6813 13.4503 18.7192 13.3177 18.7728 13.189C18.7231 13.3066 18.6734 13.425 18.6237 13.5426C18.6797 13.4147 18.7507 13.2948 18.836 13.1843C18.7586 13.2837 18.6813 13.3839 18.6047 13.4834C18.686 13.3808 18.7784 13.2885 18.8817 13.2072C18.7815 13.2845 18.6821 13.3619 18.5818 13.4384C18.6789 13.3642 18.7823 13.3027 18.8944 13.2545C18.7768 13.3042 18.6584 13.354 18.5408 13.4037C18.6466 13.3603 18.7547 13.3303 18.8683 13.3145C18.7373 13.3319 18.6063 13.35 18.4745 13.3674C18.499 13.3642 18.5234 13.3619 18.5479 13.3603C18.7515 13.3682 18.9417 13.3255 19.1177 13.2332C19.3008 13.1732 19.4602 13.0714 19.5944 12.927C19.7388 12.7928 19.8407 12.6342 19.9006 12.4511C19.993 12.2751 20.0356 12.0849 20.0277 11.8812C20.0103 11.4985 19.8849 11.1015 19.5944 10.8347C19.3182 10.5814 18.9362 10.3707 18.5479 10.4014C18.0688 10.4393 17.6206 10.5419 17.207 10.8008C16.7926 11.0597 16.4872 11.3785 16.2149 11.781C16.0839 11.9744 16.0003 12.2001 15.9134 12.4148C15.8708 12.5205 15.8361 12.6286 15.8172 12.7415C15.7335 13.2214 15.7067 13.6917 15.8614 14.1645C15.9813 14.5291 16.2047 14.8519 16.5417 15.0492C16.7114 15.1574 16.8952 15.2157 17.0918 15.2252C17.2883 15.2694 17.4856 15.2607 17.6821 15.1984C18.0404 15.0824 18.3853 14.8606 18.5668 14.5181C18.7468 14.1755 18.8391 13.7572 18.7152 13.3776Z" fill="#CFCFCF"/>
<path d="M20.6323 20.0584C20.9693 20.5707 21.3505 21.0615 21.7727 21.5059C22.1974 21.9534 22.6748 22.3401 23.1713 22.7055C23.341 22.8136 23.5248 22.8721 23.7214 22.8815C23.9179 22.9257 24.1144 22.917 24.3117 22.8547C24.655 22.76 25.0268 22.4948 25.1964 22.1744C25.378 21.8311 25.4687 21.4151 25.3456 21.0339C25.2959 20.9163 25.2462 20.798 25.1964 20.6804C25.0646 20.4578 24.8878 20.281 24.6653 20.1492C24.6069 20.1066 24.5493 20.0624 24.4917 20.0182C24.5911 20.0955 24.6913 20.1721 24.7916 20.2494C24.2478 19.8264 23.7592 19.3379 23.3354 18.7941C23.4128 18.8935 23.4901 18.9938 23.5667 19.0932C23.4341 18.9211 23.3078 18.7444 23.1878 18.5628C22.9763 18.2416 22.6819 17.9867 22.3039 17.8825C22.1074 17.821 21.9109 17.8123 21.7136 17.8557C21.517 17.8644 21.3331 17.9236 21.1635 18.0317C20.8478 18.2353 20.5692 18.5384 20.4831 18.9164C20.3971 19.2945 20.4129 19.7254 20.6323 20.0584Z" fill="#CFCFCF"/>
<path opacity="0.2" d="M68.549 19.6987C68.5237 30.5073 63.7457 41.1998 54.5961 48.407C38.7065 60.9227 15.6799 58.188 3.16426 42.2984C1.96858 40.7807 0.920478 39.2038 0.0120725 37.5843C-0.0660615 45.4001 2.37188 53.2332 7.65263 59.9369C20.1683 75.8265 43.1957 78.5612 59.0845 66.0456C73.3483 54.8101 77.0024 35.1077 68.549 19.6987Z" fill="#EEEEEF"/>
</g>
</svg>
