<svg width="150" height="47" viewBox="0 0 150 47" fill="none" xmlns="http://www.w3.org/2000/svg">
<rect x="0.25" y="0.769287" width="149.5" height="46" rx="6.9" fill="white" fill-opacity="0.12"/>
<path fill-rule="evenodd" clip-rule="evenodd" d="M11.3502 9.44803C11.0156 9.80223 10.8189 10.3508 10.8189 11.0626V36.4753C10.8189 37.1872 11.0156 37.7357 11.3502 38.0899L11.4353 38.1727L25.6712 23.9369V23.6011L11.4353 9.36523L11.3502 9.44803Z" fill="#00D7FE"/>
<mask id="mask0_262_9441" style="mask-type:alpha" maskUnits="userSpaceOnUse" x="25" y="18" width="13" height="11">
<path d="M30.4149 28.684L25.6712 23.9368V23.601L30.4172 18.855L36.1465 22.1095C37.7519 23.0226 37.7519 24.5153 36.1465 25.4272L30.5242 28.6219L30.4149 28.684Z" fill="white"/>
</mask>
<g mask="url(#mask0_262_9441)">
<path fill-rule="evenodd" clip-rule="evenodd" d="M30.4149 28.684L25.6712 23.9368V23.601L30.4172 18.855L36.1465 22.1095C37.7519 23.0226 37.7519 24.5153 36.1465 25.4272L30.5242 28.6219L30.4149 28.684Z" fill="url(#paint0_linear_262_9441)"/>
</g>
<mask id="mask1_262_9441" style="mask-type:alpha" maskUnits="userSpaceOnUse" x="11" y="23" width="20" height="16">
<path d="M30.5242 28.6223L25.6712 23.7693L11.3503 38.0902C11.8804 38.6503 12.7544 38.7193 13.7388 38.1604L30.5242 28.6223Z" fill="white"/>
</mask>
<g mask="url(#mask1_262_9441)">
<path fill-rule="evenodd" clip-rule="evenodd" d="M30.5242 28.6223L25.6712 23.7693L11.3503 38.0902C11.8804 38.6503 12.7544 38.7193 13.7388 38.1604L30.5242 28.6223Z" fill="url(#paint1_linear_262_9441)"/>
</g>
<mask id="mask2_262_9441" style="mask-type:alpha" maskUnits="userSpaceOnUse" x="11" y="8" width="20" height="16">
<path d="M30.5242 18.9162L13.7388 9.37809C12.7544 8.81919 11.8804 8.88819 11.3503 9.44824L25.6712 23.7692L30.5242 18.9162Z" fill="white"/>
</mask>
<g mask="url(#mask2_262_9441)">
<path fill-rule="evenodd" clip-rule="evenodd" d="M30.5242 18.9162L13.7388 9.37809C12.7544 8.81919 11.8804 8.88819 11.3503 9.44824L25.6712 23.7692L30.5242 18.9162Z" fill="url(#paint2_linear_262_9441)"/>
</g>
<path fill-rule="evenodd" clip-rule="evenodd" d="M119.978 36.3652H122.124V21.989H119.978V36.3652ZM139.306 27.1675L136.846 33.4005H136.773L134.22 27.1675H131.908L135.737 35.8787L133.554 40.7248H135.793L141.692 27.1675H139.306ZM127.137 34.7322C126.433 34.7322 125.453 34.3814 125.453 33.512C125.453 32.4023 126.675 31.9768 127.728 31.9768C128.672 31.9768 129.115 32.1803 129.689 32.4575C129.522 33.7892 128.375 34.7322 127.137 34.7322ZM127.396 26.8535C125.842 26.8535 124.233 27.5378 123.567 29.0546L125.472 29.8493C125.879 29.0546 126.637 28.7947 127.432 28.7947C128.542 28.7947 129.67 29.4606 129.689 30.6451V30.7923C129.3 30.5703 128.469 30.238 127.451 30.238C125.398 30.238 123.307 31.3661 123.307 33.4741C123.307 35.398 124.991 36.6377 126.877 36.6377C128.32 36.6377 129.115 35.9903 129.615 35.2313H129.689V36.341H131.76V30.8302C131.76 28.2772 129.855 26.8535 127.396 26.8535ZM114.134 28.9178H111.082V23.99H114.134C115.738 23.99 116.649 25.3183 116.649 26.4533C116.649 27.5677 115.738 28.9178 114.134 28.9178ZM114.079 21.989H108.937V36.3652H111.082V30.9188H114.079C116.457 30.9188 118.795 29.1961 118.795 26.4533C118.795 23.7106 116.457 21.989 114.079 21.989ZM86.0404 34.7345C84.5581 34.7345 83.3172 33.4936 83.3172 31.7893C83.3172 30.0666 84.5581 28.8062 86.0404 28.8062C87.5044 28.8062 88.6521 30.0666 88.6521 31.7893C88.6521 33.4936 87.5044 34.7345 86.0404 34.7345ZM88.5038 27.9725H88.4301C87.9483 27.3986 87.0225 26.88 85.8553 26.88C83.4092 26.88 81.1679 29.0282 81.1679 31.7893C81.1679 34.5309 83.4092 36.6619 85.8553 36.6619C87.0225 36.6619 87.9483 36.1432 88.4301 35.5498H88.5038V36.2536C88.5038 38.1258 87.5044 39.1263 85.8921 39.1263C84.5765 39.1263 83.7612 38.181 83.4277 37.3841L81.5566 38.1626C82.0937 39.4598 83.5208 41.0526 85.8921 41.0526C88.4118 41.0526 90.5427 39.5702 90.5427 35.9581V27.1755H88.5038V27.9725ZM92.0251 36.3652H94.1744V21.9879H92.0251V36.3652ZM97.3415 31.6226C97.2863 29.7331 98.8054 28.7694 99.8979 28.7694C100.751 28.7694 101.473 29.1949 101.714 29.8067L97.3415 31.6226ZM104.011 29.9919C103.604 28.8994 102.362 26.88 99.8243 26.88C97.3047 26.88 95.2117 28.8614 95.2117 31.7709C95.2117 34.5125 97.2863 36.6619 100.065 36.6619C102.307 36.6619 103.604 35.2911 104.141 34.4941L102.474 33.3821C101.918 34.1974 101.158 34.7345 100.065 34.7345C98.9722 34.7345 98.1936 34.2342 97.6934 33.2533L104.233 30.5485L104.011 29.9919ZM51.9073 28.3807V30.4553H56.8719C56.7235 31.6226 56.3348 32.4747 55.7426 33.0681C55.0192 33.7903 53.8888 34.5861 51.9073 34.5861C48.8506 34.5861 46.4598 32.1228 46.4598 29.0661C46.4598 26.0083 48.8506 23.545 51.9073 23.545C53.5564 23.545 54.7605 24.1936 55.6494 25.0273L57.1134 23.5634C55.8714 22.3777 54.2234 21.4692 51.9073 21.4692C47.7202 21.4692 44.2 24.879 44.2 29.0661C44.2 33.2533 47.7202 36.6619 51.9073 36.6619C54.1671 36.6619 55.8714 35.9213 57.2054 34.5309C58.5762 33.1601 59.0028 31.2339 59.0028 29.6768C59.0028 29.1949 58.966 28.751 58.8913 28.3807H51.9073ZM64.6482 34.7345C63.1658 34.7345 61.887 33.512 61.887 31.7709C61.887 30.0103 63.1658 28.8062 64.6482 28.8062C66.1294 28.8062 67.4082 30.0103 67.4082 31.7709C67.4082 33.512 66.1294 34.7345 64.6482 34.7345ZM64.6482 26.88C61.9422 26.88 59.7377 28.9362 59.7377 31.7709C59.7377 34.5861 61.9422 36.6619 64.6482 36.6619C67.353 36.6619 69.5575 34.5861 69.5575 31.7709C69.5575 28.9362 67.353 26.88 64.6482 26.88ZM75.3581 34.7345C73.8757 34.7345 72.597 33.512 72.597 31.7709C72.597 30.0103 73.8757 28.8062 75.3581 28.8062C76.8404 28.8062 78.1181 30.0103 78.1181 31.7709C78.1181 33.512 76.8404 34.7345 75.3581 34.7345ZM75.3581 26.88C72.6533 26.88 70.4488 28.9362 70.4488 31.7709C70.4488 34.5861 72.6533 36.6619 75.3581 36.6619C78.0629 36.6619 80.2675 34.5861 80.2675 31.7709C80.2675 28.9362 78.0629 26.88 75.3581 26.88Z" fill="#FFFFFE"/>
<path d="M46.9026 12.4475H46.1424V11.907H46.8719C47.1941 11.907 47.4549 11.8616 47.6541 11.7708C47.8533 11.6799 47.9983 11.554 48.0892 11.3928C48.18 11.2317 48.2254 11.0457 48.2254 10.8347C48.2254 10.6326 48.1756 10.448 48.076 10.281C47.9764 10.1111 47.8226 9.97632 47.6146 9.87671C47.4065 9.77417 47.1385 9.7229 46.8104 9.7229C46.5643 9.7229 46.3416 9.76978 46.1424 9.86353C45.9432 9.95435 45.785 10.0818 45.6678 10.2458C45.5506 10.407 45.492 10.593 45.492 10.804H44.6438C44.6438 10.5315 44.701 10.2869 44.8152 10.0701C44.9295 9.85034 45.0862 9.66431 45.2854 9.51196C45.4847 9.35669 45.7146 9.23804 45.9754 9.15601C46.2391 9.07397 46.5174 9.03296 46.8104 9.03296C47.1531 9.03296 47.4637 9.07251 47.742 9.15161C48.0203 9.22778 48.2591 9.34204 48.4583 9.49438C48.6575 9.64673 48.8099 9.83569 48.9153 10.0613C49.0208 10.2869 49.0735 10.5491 49.0735 10.8479C49.0735 11.0676 49.0223 11.2742 48.9197 11.4675C48.8172 11.6609 48.6707 11.8308 48.4803 11.9773C48.2898 12.1238 48.0613 12.2395 47.7947 12.3245C47.5281 12.4065 47.2308 12.4475 46.9026 12.4475ZM46.1424 12.074H46.9026C47.263 12.074 47.5838 12.1106 47.865 12.1838C48.1463 12.2571 48.3836 12.364 48.577 12.5046C48.7703 12.6453 48.9168 12.8196 49.0164 13.0276C49.1189 13.2327 49.1702 13.4685 49.1702 13.7351C49.1702 14.0339 49.1116 14.2991 48.9944 14.5305C48.8802 14.762 48.7176 14.9583 48.5066 15.1194C48.2957 15.2805 48.0452 15.4021 47.7552 15.4841C47.4681 15.5662 47.1531 15.6072 46.8104 15.6072C46.535 15.6072 46.2625 15.572 45.993 15.5017C45.7264 15.4285 45.4847 15.3171 45.2679 15.1677C45.0511 15.0154 44.8768 14.822 44.7449 14.5876C44.616 14.3533 44.5516 14.072 44.5516 13.7439H45.3997C45.3997 13.9578 45.4583 14.1541 45.5755 14.3328C45.6956 14.5115 45.8611 14.655 46.0721 14.7634C46.283 14.8689 46.5291 14.9216 46.8104 14.9216C47.1326 14.9216 47.4051 14.8718 47.6277 14.7722C47.8533 14.6697 48.0247 14.5305 48.1419 14.3547C48.262 14.176 48.3221 13.9753 48.3221 13.7527C48.3221 13.5564 48.2898 13.3865 48.2254 13.2429C48.1639 13.0964 48.0716 12.9763 47.9485 12.8826C47.8284 12.7888 47.6775 12.72 47.4959 12.676C47.3172 12.6292 47.1092 12.6057 46.8719 12.6057H46.1424V12.074ZM52.3851 9.68774L50.2669 15.5193H49.4012L51.8402 9.12085H52.3983L52.3851 9.68774ZM54.1605 15.5193L52.0379 9.68774L52.0247 9.12085H52.5828L55.0306 15.5193H54.1605ZM54.0506 13.1506V13.845H50.4559V13.1506H54.0506ZM59.5858 9.12085V9.81519H56.5008V15.5193H55.6571V9.12085H59.5858ZM62.7171 13.01H61.0077V12.3201H62.7171C63.0482 12.3201 63.3163 12.2673 63.5213 12.1619C63.7264 12.0564 63.8758 11.9099 63.9696 11.7224C64.0663 11.5349 64.1146 11.321 64.1146 11.0808C64.1146 10.8611 64.0663 10.6545 63.9696 10.4612C63.8758 10.2678 63.7264 10.1125 63.5213 9.99536C63.3163 9.87524 63.0482 9.81519 62.7171 9.81519H61.2054V15.5193H60.3573V9.12085H62.7171C63.2005 9.12085 63.6092 9.20435 63.9432 9.37134C64.2772 9.53833 64.5306 9.76978 64.7035 10.0657C64.8763 10.3586 64.9628 10.6941 64.9628 11.072C64.9628 11.4822 64.8763 11.8323 64.7035 12.1223C64.5306 12.4124 64.2772 12.6335 63.9432 12.7859C63.6092 12.9353 63.2005 13.01 62.7171 13.01ZM67.747 13.3967L69.4388 9.12085H70.4144L68.1513 14.4514C68.0868 14.6008 68.015 14.7458 67.9359 14.8865C67.8568 15.0242 67.7601 15.1472 67.6459 15.2556C67.5316 15.364 67.3895 15.4504 67.2196 15.5149C67.0526 15.5793 66.8446 15.6116 66.5956 15.6116C66.5253 15.6116 66.4418 15.6072 66.3451 15.5984C66.2484 15.5925 66.1854 15.5852 66.1561 15.5764L66.1825 14.8997C66.2147 14.9055 66.2777 14.9114 66.3715 14.9172C66.4652 14.9202 66.5341 14.9216 66.578 14.9216C66.745 14.9216 66.8768 14.8879 66.9735 14.8206C67.0702 14.7532 67.1478 14.6682 67.2064 14.5657C67.268 14.4602 67.3236 14.3533 67.3734 14.2449L67.747 13.3967ZM66.3099 9.12085L68.0897 13.1067L68.3007 13.8933L67.5888 13.946L65.3607 9.12085H66.3099ZM73.1151 12.4475H72.3549V11.907H73.0844C73.4066 11.907 73.6674 11.8616 73.8666 11.7708C74.0658 11.6799 74.2108 11.554 74.3017 11.3928C74.3925 11.2317 74.4379 11.0457 74.4379 10.8347C74.4379 10.6326 74.3881 10.448 74.2885 10.281C74.1889 10.1111 74.0351 9.97632 73.8271 9.87671C73.619 9.77417 73.351 9.7229 73.0229 9.7229C72.7768 9.7229 72.5541 9.76978 72.3549 9.86353C72.1557 9.95435 71.9975 10.0818 71.8803 10.2458C71.7631 10.407 71.7045 10.593 71.7045 10.804H70.8563C70.8563 10.5315 70.9135 10.2869 71.0277 10.0701C71.142 9.85034 71.2987 9.66431 71.4979 9.51196C71.6972 9.35669 71.9271 9.23804 72.1879 9.15601C72.4516 9.07397 72.7299 9.03296 73.0229 9.03296C73.3656 9.03296 73.6762 9.07251 73.9545 9.15161C74.2328 9.22778 74.4716 9.34204 74.6708 9.49438C74.87 9.64673 75.0224 9.83569 75.1278 10.0613C75.2333 10.2869 75.286 10.5491 75.286 10.8479C75.286 11.0676 75.2348 11.2742 75.1322 11.4675C75.0297 11.6609 74.8832 11.8308 74.6928 11.9773C74.5023 12.1238 74.2738 12.2395 74.0072 12.3245C73.7406 12.4065 73.4433 12.4475 73.1151 12.4475ZM72.3549 12.074H73.1151C73.4755 12.074 73.7963 12.1106 74.0775 12.1838C74.3588 12.2571 74.5961 12.364 74.7895 12.5046C74.9828 12.6453 75.1293 12.8196 75.2289 13.0276C75.3314 13.2327 75.3827 13.4685 75.3827 13.7351C75.3827 14.0339 75.3241 14.2991 75.2069 14.5305C75.0927 14.762 74.9301 14.9583 74.7191 15.1194C74.5082 15.2805 74.2577 15.4021 73.9677 15.4841C73.6806 15.5662 73.3656 15.6072 73.0229 15.6072C72.7475 15.6072 72.475 15.572 72.2055 15.5017C71.9389 15.4285 71.6972 15.3171 71.4804 15.1677C71.2636 15.0154 71.0893 14.822 70.9574 14.5876C70.8285 14.3533 70.7641 14.072 70.7641 13.7439H71.6122C71.6122 13.9578 71.6708 14.1541 71.788 14.3328C71.9081 14.5115 72.0736 14.655 72.2846 14.7634C72.4955 14.8689 72.7416 14.9216 73.0229 14.9216C73.3451 14.9216 73.6176 14.8718 73.8402 14.7722C74.0658 14.6697 74.2372 14.5305 74.3544 14.3547C74.4745 14.176 74.5346 13.9753 74.5346 13.7527C74.5346 13.5564 74.5023 13.3865 74.4379 13.2429C74.3764 13.0964 74.2841 12.9763 74.161 12.8826C74.0409 12.7888 73.89 12.72 73.7084 12.676C73.5297 12.6292 73.3217 12.6057 73.0844 12.6057H72.3549V12.074ZM77.1122 14.0515L80.2631 9.12085H81.1112V15.5193H80.2631V10.5842L77.1122 15.5193H76.2685V9.12085H77.1122V14.0515ZM84.6162 9.12085V15.5193H83.7812V9.12085H84.6162ZM86.6728 9.12085V9.81519H81.7289V9.12085H86.6728ZM91.417 14.8293V15.5193H88.0288V14.8293H91.417ZM88.2002 9.12085V15.5193H87.352V9.12085H88.2002ZM90.9687 11.8718V12.5618H88.0288V11.8718H90.9687ZM91.373 9.12085V9.81519H88.0288V9.12085H91.373ZM96.4404 12.5266H94.8188L94.8101 11.8455H96.2822C96.5254 11.8455 96.7378 11.8044 96.9194 11.7224C97.1011 11.6404 97.2417 11.5232 97.3413 11.3708C97.4438 11.2156 97.4951 11.031 97.4951 10.8171C97.4951 10.5828 97.4497 10.3923 97.3589 10.2458C97.271 10.0964 97.1348 9.98804 96.9502 9.92065C96.7686 9.85034 96.5371 9.81519 96.2559 9.81519H95.0078V15.5193H94.1597V9.12085H96.2559C96.584 9.12085 96.877 9.15454 97.1348 9.22192C97.3926 9.28638 97.6108 9.38892 97.7896 9.52954C97.9712 9.66724 98.1089 9.84302 98.2026 10.0569C98.2964 10.2708 98.3433 10.5271 98.3433 10.8259C98.3433 11.0896 98.2759 11.3284 98.1411 11.5422C98.0063 11.7532 97.8188 11.926 97.5786 12.0608C97.3413 12.1956 97.063 12.282 96.7437 12.3201L96.4404 12.5266ZM96.4009 15.5193H94.4849L94.9639 14.8293H96.4009C96.6704 14.8293 96.8989 14.7825 97.0864 14.6887C97.2769 14.595 97.4219 14.4631 97.5215 14.2932C97.6211 14.1204 97.6709 13.9167 97.6709 13.6824C97.6709 13.4451 97.6284 13.24 97.5435 13.0671C97.4585 12.8943 97.3252 12.761 97.1436 12.6672C96.9619 12.5735 96.7275 12.5266 96.4404 12.5266H95.2319L95.2407 11.8455H96.8931L97.0732 12.0916C97.3809 12.1179 97.6416 12.2058 97.8555 12.3552C98.0693 12.5017 98.2319 12.6892 98.3433 12.9177C98.4575 13.1462 98.5146 13.3982 98.5146 13.6736C98.5146 14.072 98.4268 14.4089 98.251 14.6843C98.0781 14.9568 97.8335 15.1648 97.5171 15.3083C97.2007 15.449 96.8286 15.5193 96.4009 15.5193Z" fill="white"/>
<defs>
<linearGradient id="paint0_linear_262_9441" x1="35.1021" y1="23.7693" x2="25.6712" y2="23.7693" gradientUnits="userSpaceOnUse">
<stop stop-color="#FFBC00"/>
<stop offset="1" stop-color="#FFDA03"/>
</linearGradient>
<linearGradient id="paint1_linear_262_9441" x1="27.8868" y1="28.3357" x2="15.5778" y2="38.4816" gradientUnits="userSpaceOnUse">
<stop stop-color="#E22652"/>
<stop offset="1" stop-color="#FF3A44"/>
</linearGradient>
<linearGradient id="paint2_linear_262_9441" x1="13.5188" y1="11.1723" x2="21.7254" y2="18.3884" gradientUnits="userSpaceOnUse">
<stop stop-color="#0ED574"/>
<stop offset="1" stop-color="#07F076"/>
</linearGradient>
</defs>
</svg>
