<svg width="66" height="47" viewBox="0 0 66 47" fill="none" xmlns="http://www.w3.org/2000/svg">
<path d="M9.07144 32.2931C1.8759 28.1301 -0.979425 19.1961 2.43964 11.7441L10.7651 16.5233L10.7688 16.5255L11.493 16.9454V33.6792L9.07329 32.2942C9.07267 32.2938 9.07205 32.2935 9.07144 32.2931Z" stroke="url(#paint0_linear_229_25)" stroke-width="2"/>
<mask id="path-2-inside-1_229_25" fill="white">
<path fill-rule="evenodd" clip-rule="evenodd" d="M30.3532 4.62755L15.3956 13.2772L13.9475 14.0992L13.8235 14.1709L12.4928 13.4012L3.29517 8.12395C3.32778 8.07177 3.35388 8.02611 3.38649 7.98044C8.17448 0.198329 18.3441 -2.28699 26.2632 2.28574L30.3532 4.62755Z"/>
</mask>
<path d="M30.3532 4.62755L31.3544 6.3589L34.3632 4.61894L31.3469 2.89192L30.3532 4.62755ZM15.3956 13.2772L16.3828 15.0166L16.3898 15.0126L16.3968 15.0086L15.3956 13.2772ZM13.9475 14.0992L12.9603 12.3598L12.9528 12.364L12.9453 12.3683L13.9475 14.0992ZM13.8235 14.1709L12.8221 15.9022L13.824 16.4817L14.8257 15.9017L13.8235 14.1709ZM12.4928 13.4012L13.4942 11.6699L13.4881 11.6664L12.4928 13.4012ZM3.29517 8.12395L1.59917 7.06396L0.498439 8.82513L2.29984 9.8587L3.29517 8.12395ZM3.38649 7.98044L5.01396 9.14292L5.0539 9.08701L5.08991 9.02848L3.38649 7.98044ZM26.2632 2.28574L25.2631 4.01774L25.2694 4.02137L26.2632 2.28574ZM29.352 2.8962L14.3944 11.5459L16.3968 15.0086L31.3544 6.3589L29.352 2.8962ZM14.4084 11.5379L12.9603 12.3598L14.9347 15.8385L16.3828 15.0166L14.4084 11.5379ZM12.9453 12.3683L12.8214 12.4401L14.8257 15.9017L14.9496 15.83L12.9453 12.3683ZM14.8249 12.4397L13.4942 11.6699L11.4914 15.1324L12.8221 15.9022L14.8249 12.4397ZM13.4881 11.6664L4.29049 6.38921L2.29984 9.8587L11.4975 15.1359L13.4881 11.6664ZM4.99116 9.18395C5.00487 9.16201 5.01698 9.14223 5.02482 9.12942C5.0293 9.12209 5.03192 9.1178 5.03483 9.11305C5.03747 9.10875 5.03907 9.10616 5.0401 9.10449C5.0448 9.09692 5.03371 9.11527 5.01396 9.14292L1.75902 6.81797C1.70666 6.89128 1.66621 6.95529 1.64156 6.99501C1.62984 7.0139 1.6182 7.03298 1.6124 7.04246C1.60515 7.05431 1.60177 7.0598 1.59917 7.06396L4.99116 9.18395ZM5.08991 9.02848C9.30049 2.18485 18.2651 -0.0230959 25.2631 4.01773L27.2633 0.553746C18.423 -4.55088 7.04847 -1.78819 1.68308 6.93241L5.08991 9.02848ZM25.2694 4.02137L29.3594 6.36318L31.3469 2.89192L27.2569 0.550104L25.2694 4.02137Z" fill="url(#paint1_linear_229_25)" mask="url(#path-2-inside-1_229_25)"/>
<path d="M55.0689 16.5233L63.3943 11.7441C66.8134 19.1961 63.9581 28.1301 56.7626 32.2931C56.7619 32.2935 56.7613 32.2938 56.7607 32.2942L54.3409 33.6792V16.9454L55.067 16.5244L55.0689 16.5233Z" stroke="url(#paint2_linear_229_25)" stroke-width="2"/>
<path d="M40.0707 3.15173C47.278 -1.01001 56.4543 1.04109 61.1241 7.78265L52.8433 12.5338L52.8403 12.5356L52.0068 13.0177L50.9353 12.4096L37.4856 4.63185L40.0675 3.15355L40.0675 3.15356L40.0707 3.15173Z" stroke="url(#paint3_linear_229_25)" stroke-width="2"/>
<path d="M18.3218 15.7795L32.9107 7.33515L47.2827 15.6415L36.8141 21.6846L36.8134 21.685L36.7875 21.698L36.7616 21.7129L32.8454 23.9716L18.3218 15.7795Z" stroke="url(#paint4_linear_229_25)" stroke-width="2"/>
<path d="M35.2214 44.9204V28.0617L39.1887 25.7382L39.1894 25.7377L49.7772 19.5244V36.5098L45.9913 38.6995L45.9908 38.6998L35.2214 44.9204Z" stroke="url(#paint5_linear_229_25)" stroke-width="2"/>
<path d="M30.6123 44.7963L16.0565 36.3856V19.8946L30.6123 28.1035V44.7963Z" stroke="url(#paint6_linear_229_25)" stroke-width="2"/>
<defs>
<linearGradient id="paint0_linear_229_25" x1="6.24651" y1="10.3484" x2="6.24651" y2="35.4038" gradientUnits="userSpaceOnUse">
<stop stop-color="#6138D3"/>
<stop offset="1" stop-color="#926BFF"/>
</linearGradient>
<linearGradient id="paint1_linear_229_25" x1="16.8242" y1="0" x2="16.8242" y2="14.1709" gradientUnits="userSpaceOnUse">
<stop stop-color="#6138D3"/>
<stop offset="1" stop-color="#926BFF"/>
</linearGradient>
<linearGradient id="paint2_linear_229_25" x1="59.5875" y1="10.3484" x2="59.5875" y2="35.4038" gradientUnits="userSpaceOnUse">
<stop stop-color="#6138D3"/>
<stop offset="1" stop-color="#926BFF"/>
</linearGradient>
<linearGradient id="paint3_linear_229_25" x1="49.0096" y1="0" x2="49.0096" y2="14.1709" gradientUnits="userSpaceOnUse">
<stop stop-color="#6138D3"/>
<stop offset="1" stop-color="#926BFF"/>
</linearGradient>
<linearGradient id="paint4_linear_229_25" x1="32.7896" y1="6.17993" x2="32.7896" y2="25.1232" gradientUnits="userSpaceOnUse">
<stop stop-color="#6138D3"/>
<stop offset="1" stop-color="#926BFF"/>
</linearGradient>
<linearGradient id="paint5_linear_229_25" x1="42.4993" y1="17.7781" x2="42.4993" y2="46.6495" gradientUnits="userSpaceOnUse">
<stop stop-color="#6138D3"/>
<stop offset="1" stop-color="#926BFF"/>
</linearGradient>
<linearGradient id="paint6_linear_229_25" x1="23.3344" y1="18.1826" x2="23.3344" y2="46.5322" gradientUnits="userSpaceOnUse">
<stop stop-color="#6138D3"/>
<stop offset="1" stop-color="#926BFF"/>
</linearGradient>
</defs>
</svg>
