<svg width="991" height="228" viewBox="0 0 991 228" fill="none" xmlns="http://www.w3.org/2000/svg">
<path d="M57.0596 82.3091V166.137L43.9013 158.606C43.8987 158.604 43.8961 158.603 43.8935 158.601C8.04927 137.864 -6.01127 93.1649 11.5277 56.1487L53.0595 79.9899L53.0744 79.9985L57.0596 82.3091Z" stroke="url(#paint0_linear_183_507)" stroke-width="8"/>
<path d="M67.5756 64.6467L63.0617 62.0357L63.0495 62.0287L21.7444 38.3295C44.6578 4.36168 90.4576 -6.09633 126.361 14.6355L126.368 14.6392L126.374 14.6428L140.331 22.6343L73.2719 61.4137L73.2579 61.4216L67.5756 64.6467Z" stroke="url(#paint1_linear_183_507)" stroke-width="8"/>
<path d="M268.704 79.9899L310.236 56.1487C327.775 93.1649 313.714 137.865 277.87 158.602C277.867 158.603 277.864 158.604 277.862 158.606L264.704 166.137V82.3091L268.689 79.9985L268.704 79.9899Z" stroke="url(#paint2_linear_183_507)" stroke-width="8"/>
<path d="M195.401 14.6355C231.305 -6.09633 277.105 4.36168 300.018 38.3295L258.713 62.0287L258.701 62.0357L254.187 64.6467L248.505 61.4217L181.431 22.6343L195.389 14.6428L195.395 14.6392L195.401 14.6355Z" stroke="url(#paint3_linear_183_507)" stroke-width="8"/>
<path d="M87.7595 77.1326L160.851 34.8257L232.869 76.4488L180.346 106.768L180.326 106.778L180.219 106.831L180.116 106.891L160.537 118.183L87.7595 77.1326Z" stroke="url(#paint4_linear_183_507)" stroke-width="8"/>
<path d="M171.257 221.087V136.644L191.086 125.03L191.089 125.028L244.173 93.8764V178.954L225.226 189.913L225.224 189.914L171.257 221.087Z" stroke="url(#paint5_linear_183_507)" stroke-width="8"/>
<path d="M77.5889 178.347V95.716L150.505 136.838V220.48L77.5889 178.347Z" stroke="url(#paint6_linear_183_507)" stroke-width="8"/>
<path d="M395.423 137.6H446.943V149.5H380.583V65.5H395.423V137.6ZM489.665 78.24C500.165 78.24 509.405 81.74 516.125 87.62C523.265 93.78 527.325 102.88 527.325 114.5C527.325 126.12 523.265 135.22 516.125 141.38C509.405 147.26 500.165 150.76 489.665 150.76C479.025 150.76 469.785 147.26 463.205 141.38C456.065 135.22 451.865 126.12 451.865 114.5C451.865 102.88 456.065 93.78 463.205 87.62C469.785 81.74 479.025 78.24 489.665 78.24ZM489.665 89.86C482.525 89.86 476.645 92.24 472.725 96.3C468.525 100.5 466.285 106.52 466.285 114.5C466.285 122.48 468.525 128.5 472.725 132.7C476.645 136.76 482.525 139.14 489.665 139.14C496.805 139.14 502.545 136.76 506.605 132.7C510.665 128.5 512.905 122.48 512.905 114.5C512.905 106.52 510.665 100.5 506.605 96.3C502.545 92.24 496.805 89.86 489.665 89.86ZM562.916 149.5L530.296 79.5H545.836L571.316 136.48H573.976L596.796 79.5H612.056L578.456 158.6C576.356 163.92 573.276 167.28 570.056 169.24C566.416 171.34 562.356 171.9 558.156 171.9C555.496 171.9 552.696 171.34 550.036 170.36L551.296 160.42C553.396 160.84 554.936 160.98 556.476 160.98C558.436 160.98 560.536 160.56 562.356 159.58C564.036 158.46 565.436 156.78 566.556 153.84L568.236 149.5H562.916ZM685.671 101.62V129.62C685.671 136.48 686.231 141.1 689.031 147.26L680.911 150.48C678.111 148.52 675.591 145.58 674.051 142.36C666.771 147.68 658.511 150.76 648.011 150.76C637.651 150.76 629.531 149.08 623.511 144.6C618.331 140.82 615.111 134.94 615.111 126.26C615.111 117.86 619.031 111.98 625.191 108.06C631.351 104.14 639.611 102.32 648.011 102.32C656.411 102.32 662.991 103.02 671.391 105.12V100.92C671.391 97.42 669.571 94.62 666.771 92.94C662.851 90.56 656.551 89.86 650.531 89.86C640.871 89.86 634.151 90.84 624.771 93.92L621.971 84.26C632.331 80.06 641.151 78.24 652.631 78.24C663.131 78.24 672.511 80.34 678.251 85.1C683.151 89.16 685.671 95.04 685.671 101.62ZM647.731 113.66C642.831 113.66 637.791 114.5 634.291 116.88C631.351 118.98 629.531 121.92 629.531 126.12C629.531 130.46 631.351 133.54 634.291 135.64C637.931 138.16 643.391 139.14 649.271 139.14C658.371 139.14 664.531 137.18 671.391 133.4V115.2C662.151 114.08 657.111 113.66 647.731 113.66ZM696.363 67.6V58.5H719.043V149.5H704.763V69.14L696.363 67.6ZM736.736 58.5H751.016V85.8C757.596 81.04 765.436 78.24 774.816 78.24C785.456 78.24 793.016 80.62 798.476 85.66C804.216 90.98 807.436 99.1 807.436 111V149.5H793.156V111.56C793.156 103.86 791.476 98.4 787.976 94.9C784.756 91.54 779.856 90 773.276 90C764.736 90 757.876 92.24 751.016 97.42V149.5H736.736V58.5ZM892.468 149.5H882.108L879.728 142.36C873.568 147.4 865.308 150.76 854.948 150.76C844.728 150.76 836.888 148.66 831.288 144.04C825.128 138.72 821.768 130.32 821.768 118V79.5H836.048V117.44C836.048 125.28 837.868 130.88 841.368 134.38C844.728 137.6 849.488 139.14 856.068 139.14C864.888 139.14 871.188 137.04 878.188 131.58V79.5H892.468V149.5ZM910.095 149.5V58.5H924.375V85.66C930.675 80.9 938.935 78.24 948.315 78.24C960.215 78.24 969.875 82.02 976.315 88.88C982.055 94.9 985.415 103.58 985.415 114.5C985.415 125.14 981.775 134.66 974.915 141.24C968.755 147.12 959.935 150.76 948.595 150.76C937.955 150.76 929.975 148.52 922.975 142.36L920.595 149.5H910.095ZM947.615 139C954.755 139 960.355 136.62 964.275 132.56C968.755 128.22 970.995 121.78 970.995 114.36C970.995 107.08 969.175 101.2 965.395 96.86C961.475 92.38 955.315 89.86 947.055 89.86C937.395 89.86 930.255 92.8 924.375 97.7V131.58C931.795 136.62 937.815 139 947.615 139Z" fill="#1A1A1A"/>
<defs>
<linearGradient id="paint0_linear_183_507" x1="30.5298" y1="50.5776" x2="30.5298" y2="173.036" gradientUnits="userSpaceOnUse">
<stop stop-color="#6138D3"/>
<stop offset="1" stop-color="#926BFF"/>
</linearGradient>
<linearGradient id="paint1_linear_183_507" x1="82.2284" y1="0" x2="82.2284" y2="69.2603" gradientUnits="userSpaceOnUse">
<stop stop-color="#6138D3"/>
<stop offset="1" stop-color="#926BFF"/>
</linearGradient>
<linearGradient id="paint2_linear_183_507" x1="291.233" y1="50.5776" x2="291.233" y2="173.036" gradientUnits="userSpaceOnUse">
<stop stop-color="#6138D3"/>
<stop offset="1" stop-color="#926BFF"/>
</linearGradient>
<linearGradient id="paint3_linear_183_507" x1="239.534" y1="0" x2="239.534" y2="69.2603" gradientUnits="userSpaceOnUse">
<stop stop-color="#6138D3"/>
<stop offset="1" stop-color="#926BFF"/>
</linearGradient>
<linearGradient id="paint4_linear_183_507" x1="160.26" y1="30.2048" x2="160.26" y2="122.79" gradientUnits="userSpaceOnUse">
<stop stop-color="#6138D3"/>
<stop offset="1" stop-color="#926BFF"/>
</linearGradient>
<linearGradient id="paint5_linear_183_507" x1="207.715" y1="86.8911" x2="207.715" y2="228" gradientUnits="userSpaceOnUse">
<stop stop-color="#6138D3"/>
<stop offset="1" stop-color="#926BFF"/>
</linearGradient>
<linearGradient id="paint6_linear_183_507" x1="114.047" y1="88.8679" x2="114.047" y2="227.426" gradientUnits="userSpaceOnUse">
<stop stop-color="#6138D3"/>
<stop offset="1" stop-color="#926BFF"/>
</linearGradient>
</defs>
</svg>
